<svg width="43" height="42" viewBox="0 0 43 42" fill="none" xmlns="http://www.w3.org/2000/svg">
<g clip-path="url(#clip0_87_88)">
<path d="M35.8771 7H7.56425C5.61774 7 4.04284 8.575 4.04284 10.5L4.02515 31.5C4.02515 33.425 5.61774 35 7.56425 35H35.8771C37.8236 35 39.4162 33.425 39.4162 31.5V10.5C39.4162 8.575 37.8236 7 35.8771 7ZM35.1693 14.4375L22.6585 22.1725C22.0923 22.5225 21.3491 22.5225 20.7828 22.1725L8.27207 14.4375C7.82969 14.1575 7.56425 13.685 7.56425 13.1775C7.56425 12.005 8.85603 11.305 9.86467 11.9175L21.7207 19.25L33.5767 11.9175C34.5853 11.305 35.8771 12.005 35.8771 13.1775C35.8771 13.685 35.6117 14.1575 35.1693 14.4375Z" fill="#33FFCC"/>
</g>
<defs>
<clipPath id="clip0_87_88">
<rect width="42.4693" height="42" fill="white" transform="translate(0.486084)"/>
</clipPath>
</defs>
</svg>
