<svg width="44" height="42" viewBox="0 0 44 42" fill="none" xmlns="http://www.w3.org/2000/svg">
<path d="M20.0368 3.67501C11.8969 4.55001 5.34953 11.025 4.46475 18.9C3.57998 27.125 8.35777 34.475 15.6129 37.275C16.1438 37.45 16.6747 37.1 16.6747 36.4V33.6C16.6747 33.6 15.9668 33.775 15.0821 33.775C12.6047 33.775 11.543 31.675 11.366 30.45C11.1891 29.75 10.8351 29.225 10.3043 28.7C9.77341 28.525 9.59646 28.525 9.59646 28.35C9.59646 28 10.1273 28 10.3043 28C11.366 28 12.2508 29.225 12.6047 29.75C13.4895 31.15 14.5512 31.5 15.0821 31.5C15.7899 31.5 16.3208 31.325 16.6747 31.15C16.8516 29.925 17.3825 28.7 18.4442 28C14.3742 27.125 11.366 24.85 11.366 21C11.366 19.075 12.2508 17.15 13.4895 15.75C13.3125 15.4 13.1356 14.525 13.1356 13.3C13.1356 12.6 13.1356 11.725 13.4895 11.025C13.4895 10.675 13.8434 10.5 14.0203 10.5H14.1973C15.0821 10.675 16.8516 11.2 18.4442 12.775C19.506 12.425 20.7446 12.25 21.9833 12.25C23.222 12.25 24.4607 12.425 25.5224 12.775C27.115 11.2 29.0615 10.675 29.9463 10.5H30.1233C30.4772 10.5 30.6541 10.675 30.8311 11.025C30.8311 11.725 30.8311 12.6 30.8311 13.3C30.8311 14.7 30.6541 15.4 30.4772 15.75C31.7159 17.15 32.6006 18.9 32.6006 21C32.6006 24.85 29.5924 27.125 25.5224 28C26.5842 28.875 27.292 30.45 27.292 32.025V36.575C27.292 37.1 27.8229 37.625 28.5307 37.45C35.078 34.825 39.6789 28.525 39.6789 21.175C39.6789 10.675 30.6541 2.45001 20.0368 3.67501Z" fill="#33FFCC"/>
</svg>
