<svg width="43" height="42" viewBox="0 0 43 42" fill="none" xmlns="http://www.w3.org/2000/svg">
<path d="M33.6216 5.25H8.84782C6.89247 5.25 5.30872 6.81625 5.30872 8.75V33.25C5.30872 35.1838 6.89247 36.75 8.84782 36.75H33.6216C35.5769 36.75 37.1607 35.1838 37.1607 33.25V8.75C37.1607 6.81625 35.5769 5.25 33.6216 5.25ZM13.6929 29.75C12.4595 29.75 11.4597 28.7612 11.4597 27.5415V19.7067C11.4615 18.4887 12.4612 17.5 13.6929 17.5C14.9262 17.5 15.926 18.4888 15.926 19.7085V27.5433C15.926 28.7613 14.9262 29.75 13.6929 29.75ZM13.615 15.2548C12.2507 15.2548 11.3394 14.3553 11.3394 13.1548C11.3394 11.9543 12.2489 11.0547 13.7654 11.0547C15.1297 11.0547 16.0411 11.9543 16.0411 13.1548C16.0411 14.3553 15.1315 15.2548 13.615 15.2548ZM29.6914 29.75C28.4987 29.75 27.5308 28.7928 27.5308 27.6133V23.0545C27.5308 21.203 26.3788 21 25.947 21C25.5152 21 24.0748 21.0612 24.0748 23.0545V27.6133C24.0748 28.7928 23.1069 29.75 21.9142 29.75H21.7709C20.5782 29.75 19.6102 28.7928 19.6102 27.6133V19.7085C19.6102 18.4888 20.61 17.5 21.8434 17.5C23.0768 17.5 24.0766 18.4888 24.0766 19.7085C24.0766 19.7085 24.5756 17.5 27.9661 17.5C30.1232 17.5 31.852 19.2097 31.852 23.0545V27.6133C31.852 28.7928 30.8841 29.75 29.6914 29.75Z" fill="#33FFCC"/>
</svg>
