<svg width="43" height="42" viewBox="0 0 43 42" fill="none" xmlns="http://www.w3.org/2000/svg">
<path d="M33.9924 8.62399C30.3082 4.97874 25.2826 3.13949 20.0058 3.55949C12.9117 4.12299 6.69349 9.00199 4.6125 15.7325C3.12608 20.5415 3.75073 25.5622 6.17148 29.7097L3.87814 37.24C3.65871 37.9627 4.32583 38.6435 5.06374 38.4492L13.0338 36.337C15.6156 37.73 18.5212 38.4632 21.4799 38.465H21.487C28.9102 38.465 35.769 33.9745 38.142 27.0182C40.453 20.2352 38.7436 13.328 33.9924 8.62399ZM30.1365 27.2195C29.7685 28.2397 27.9653 29.2232 27.1548 29.295C26.3444 29.3685 25.5852 29.6572 21.855 28.203C17.3657 26.453 14.5308 21.9012 14.3114 21.6107C14.0902 21.3185 12.5082 19.243 12.5082 17.094C12.5082 14.945 13.6496 13.888 14.0548 13.4522C14.4601 13.0147 14.9378 12.9062 15.2334 12.9062C15.5271 12.9062 15.8226 12.9062 16.0792 12.9167C16.3942 12.929 16.7428 12.9447 17.0737 13.671C17.4665 14.5355 18.3248 16.695 18.4345 16.9137C18.5442 17.1325 18.6185 17.388 18.4716 17.6785C18.3248 17.969 18.2504 18.151 18.031 18.4065C17.8098 18.662 17.5674 18.9752 17.3692 19.1712C17.148 19.3882 16.918 19.6262 17.1746 20.062C17.4329 20.4995 18.3177 21.9292 19.6307 23.086C21.3188 24.5735 22.7398 25.0337 23.1822 25.2542C23.6246 25.473 23.8812 25.4362 24.1395 25.144C24.3979 24.8535 25.2437 23.87 25.5375 23.4325C25.8312 22.995 26.1267 23.0685 26.532 23.2137C26.9372 23.359 29.1084 24.416 29.549 24.6347C29.9914 24.8535 30.2852 24.962 30.3949 25.144C30.5046 25.3242 30.5046 26.1992 30.1365 27.2195Z" fill="#33FFCC"/>
</svg>
